<svg width="504" height="480" viewBox="0 0 504 480" fill="none" xmlns="http://www.w3.org/2000/svg">
<g clip-path="url(#clip0)">
<path d="M348.919 333.894C367.502 331.97 381.599 315.95 380.958 296.724C380.319 277.5 364.297 262.119 345.073 262.119H343.793C323.925 262.761 308.547 279.422 309.188 299.287C309.829 308.9 313.673 317.231 319.44 322.998C297.653 365.935 264.331 397.335 214.348 423.609C180.385 441.553 145.141 447.961 109.898 443.476C81.0605 439.631 58.6321 426.815 44.5322 405.666C24.0276 374.265 22.1058 340.3 39.408 306.337C51.5841 281.985 70.8062 264.041 82.9823 255.07C80.4192 246.739 76.5736 232.641 74.6518 222.389C-18.2661 289.676 -8.65311 380.674 19.5427 423.609C40.6886 455.652 83.6236 475.518 131.043 475.518C143.859 475.518 156.674 474.235 169.492 471.033C251.516 455.011 313.675 406.307 348.919 333.894V333.894ZM461.702 254.43C413 197.395 341.23 165.995 259.205 165.995H248.953C243.185 154.46 231.009 146.769 217.553 146.769H216.27C196.407 147.41 181.028 164.071 181.668 183.939C182.309 203.163 198.329 218.543 217.553 218.543H218.833C232.931 217.902 245.107 208.93 250.233 196.754H261.768C310.471 196.754 356.608 210.852 398.262 238.409C430.302 259.556 453.371 287.113 466.187 320.435C477.08 347.35 476.439 373.624 464.904 396.055C446.963 430.018 416.845 448.603 377.115 448.603C351.482 448.603 327.132 440.911 314.314 435.144C307.266 441.553 294.449 451.805 285.477 458.216C313.034 471.031 341.23 478.081 368.143 478.081C429.661 478.081 475.159 444.116 492.461 410.152C511.044 372.983 509.761 308.9 461.702 254.43V254.43ZM136.17 344.785C136.811 364.011 152.831 379.39 172.055 379.39H173.337C193.202 378.75 208.581 362.087 207.94 342.222C207.3 322.996 191.279 307.618 172.055 307.618H170.774C169.492 307.618 167.568 307.618 166.289 308.257C140.015 264.681 129.122 217.261 132.967 165.993C135.528 127.543 148.346 94.2193 170.774 66.6627C189.357 42.9518 225.242 31.417 249.594 30.7777C317.519 29.4952 346.354 114.085 348.277 148.05C356.608 149.972 370.706 154.458 380.319 157.663C372.628 53.8493 308.547 0.0187988 247.031 0.0187988C189.357 0.0187988 136.17 41.6732 115.022 103.193C85.5454 185.219 104.769 264.041 140.654 326.202C137.452 330.687 135.528 337.737 136.17 344.787V344.785Z" fill="#764ABC"/>
</g>
<defs>
<clipPath id="clip0">
<rect width="503.567" height="480" fill="white"/>
</clipPath>
</defs>
</svg>
