<svg width="448" height="448" viewBox="0 0 448 448" fill="none" xmlns="http://www.w3.org/2000/svg">
<rect x="79" y="74" width="288" height="292" fill="white"/>
<path d="M264.266 258.055L247.137 290.855C245.262 294.449 241 296.074 237.207 294.641C198.531 280 168.004 249.465 153.375 210.785C151.941 206.992 153.566 202.73 157.16 200.855L189.961 183.734L179.617 125.129C167.23 118.156 152.074 118.285 139.805 125.461C127.535 132.637 119.996 145.785 120 160C120.105 252.738 195.262 327.894 288 328C302.207 328 315.352 320.465 322.527 308.199C329.703 295.937 329.836 280.785 322.871 268.398L264.266 258.055Z" fill="#65A1CD"/>
<path d="M224 0C100.289 0 0 100.289 0 224C0 347.711 100.289 448 224 448C347.711 448 448 347.711 448 224C447.859 100.348 347.652 0.140625 224 0ZM288 344C186.426 343.887 104.113 261.574 104 160C104.004 139.289 115.438 120.27 133.727 110.551C152.02 100.836 174.18 102.008 191.344 113.602C193.141 114.813 194.367 116.703 194.742 118.84L206.742 186.734C207.348 190.172 205.66 193.602 202.566 195.215L171.047 211.68C183.938 240.82 207.219 264.113 236.352 277.016L252.801 245.457C254.414 242.363 257.844 240.676 261.281 241.281L329.184 253.281C331.316 253.656 333.203 254.879 334.414 256.672C346 273.836 347.168 295.996 337.449 314.281C327.727 332.57 308.711 344 288 344Z" fill="#65A1CD"/>
</svg>
