<svg width="448" height="448" viewBox="0 0 448 448" fill="none" xmlns="http://www.w3.org/2000/svg">
<rect x="106" y="72" width="257" height="302" fill="white"/>
<path d="M240 176C240 184.836 232.836 192 224 192C215.164 192 208 184.836 208 176C208 167.164 215.164 160 224 160C232.836 160 240 167.164 240 176Z" fill="#65A1CD"/>
<path d="M224 112C179.836 112.047 144.047 147.836 144 192C144 242.832 204.887 312 224 332.426C243.105 312 304 242.785 304 192C303.953 147.836 268.164 112.047 224 112V112ZM224 208C206.328 208 192 193.672 192 176C192 158.328 206.328 144 224 144C241.672 144 256 158.328 256 176C256 193.672 241.672 208 224 208Z" fill="#65A1CD"/>
<path d="M224 0C100.289 0 0 100.289 0 224C0 347.711 100.289 448 224 448C347.711 448 448 347.711 448 224C447.859 100.348 347.652 0.140625 224 0ZM229.656 349.656C226.531 352.777 221.469 352.777 218.344 349.656C214.656 345.969 128 258.543 128 192C128 138.98 170.98 96 224 96C277.02 96 320 138.98 320 192C320 258.543 233.344 345.969 229.656 349.656Z" fill="#65A1CD"/>
</svg>
